<svg id="visual" viewBox="0 0 900 600" width="900" height="600" xmlns="http://www.w3.org/2000/svg" xmlns:xlink="http://www.w3.org/1999/xlink" version="1.1"><rect x="0" y="0" width="900" height="600" fill="#fff"></rect><g transform="translate(-150.9923566198845 96.07566265441932)"><path d="M439.2 -528.9C571.2 -412.7 681.5 -276.2 745.4 -103.4C809.3 69.4 826.8 278.5 727.6 391.6C628.4 504.8 412.3 522.1 245.2 513.4C78.1 504.6 -40.1 469.8 -151.1 425.1C-262 380.4 -365.7 325.7 -429.1 237.3C-492.5 149 -515.6 27 -476.5 -64.8C-437.5 -156.7 -336.2 -218.4 -246.5 -342.1C-156.7 -465.7 -78.3 -651.4 37.6 -696.2C153.6 -741.1 307.3 -645.2 439.2 -528.9" fill="#888"></path></g></svg>